<svg width="248" height="60" viewBox="0 0 248 60" fill="none" xmlns="http://www.w3.org/2000/svg">
<path d="M23.048 0.943996L26.376 1.008C27.5707 1.22133 28.7013 1.584 29.768 2.096C30.8773 2.608 31.8373 3.376 32.648 4.4C32.8187 4.57066 32.9253 4.67733 32.968 4.72L34.824 2.864C36.0613 1.62667 36.7013 0.986665 36.744 0.943996C36.9573 0.773332 37.384 0.773332 38.024 0.943996C38.152 1.072 38.2373 1.17866 38.28 1.264C38.3227 1.43466 37.7253 3.99466 36.488 8.944C35.208 13.9787 34.5253 16.5387 34.44 16.624L34.248 16.816H33.096C32.1147 16.816 31.5813 16.688 31.496 16.432C31.4533 16.304 31.4747 16.0267 31.56 15.6C31.944 12.6133 31.7093 10.16 30.856 8.24C29.832 6.10666 28.04 4.82666 25.48 4.4C24.456 4.22933 23.3253 4.22933 22.088 4.4C20.4667 4.74133 18.952 5.59467 17.544 6.96C15.112 9.34933 14.1307 11.888 14.6 14.576C14.856 16.4107 15.8373 17.6693 17.544 18.352L21.96 19.568C23.624 19.9947 25.2027 20.4213 26.696 20.848C27.8053 21.3173 28.8293 22.0213 29.768 22.96C30.4507 23.6427 31.0053 24.432 31.432 25.328C32.6267 27.8453 32.84 30.64 32.072 33.712C31.0907 37.8933 28.7867 41.392 25.16 44.208C24.8613 44.4213 24.5627 44.6347 24.264 44.848C22.7707 45.744 21.512 46.3627 20.488 46.704C18.9093 47.216 17.288 47.4507 15.624 47.408C12.9787 47.28 10.76 46.768 8.968 45.872C8.11467 45.488 7.24 44.8693 6.344 44.016L5.768 43.44C5.72533 43.44 5.10667 44.08 3.912 45.36L1.928 47.344L1.288 47.408H1.224C0.882667 47.408 0.648 47.344 0.52 47.216C0.392 47.088 0.328 46.9813 0.328 46.896C0.328 46.768 1.56533 41.7547 4.04 31.856C4.12533 31.6 4.65867 31.472 5.64 31.472H6.792L6.984 31.664C7.15467 31.8347 7.176 32.2827 7.048 33.008C7.048 33.0933 7.02667 33.2 6.984 33.328C6.68533 34.9067 6.64267 36.2293 6.856 37.296C7.70933 41.4347 10.8453 43.6107 16.264 43.824C17.3733 43.824 18.312 43.696 19.08 43.44C21.4693 42.672 23.3893 41.008 24.84 38.448C25.4373 37.4667 25.8427 36.4427 26.056 35.376C26.568 32.816 26.1627 30.768 24.84 29.232C24.4133 28.8053 23.8587 28.4427 23.176 28.144L18.76 26.928C15.5173 26.0747 13.5333 25.456 12.808 25.072C9.90667 23.408 8.392 20.7627 8.264 17.136C8.17867 15.6 8.41333 14.0213 8.968 12.4C10.2907 8.38933 12.872 5.27467 16.712 3.056C17.224 2.75733 17.7573 2.48 18.312 2.224C19.7627 1.54133 21.1067 1.136 22.344 1.008C22.5147 0.965331 22.7493 0.943996 23.048 0.943996ZM49.626 1.968C53.0393 1.712 54.7033 1.584 54.618 1.584C55.002 1.584 55.258 1.73333 55.386 2.032C55.4287 2.20266 54.3833 6.59733 52.25 15.216L48.986 28.144L49.306 27.952C50.5007 27.2267 52.2287 25.7973 54.49 23.664C55.898 22.2987 57.0287 21.2533 57.882 20.528C60.2287 18.5653 62.4687 17.6267 64.602 17.712C65.2847 17.7547 65.8393 17.904 66.266 18.16C67.162 18.6293 67.7807 19.4827 68.122 20.72C68.378 21.744 68.4207 22.9173 68.25 24.24C67.866 26.288 66.9487 27.6747 65.498 28.4C64.3033 28.9547 63.1727 28.9973 62.106 28.528C60.8687 27.9307 60.3993 26.8427 60.698 25.264C60.8687 24.4107 61.274 23.6213 61.914 22.896C62.7673 22.128 63.6847 21.68 64.666 21.552C64.922 21.552 65.05 21.5307 65.05 21.488C65.05 21.36 64.9007 21.1467 64.602 20.848C64.1327 20.5067 63.194 20.592 61.786 21.104C61.146 21.3173 60.3993 21.7227 59.546 22.32C58.4793 23.0027 56.9007 24.368 54.81 26.416C53.4873 27.696 52.4847 28.6347 51.802 29.232C51.5887 29.4027 51.546 29.5093 51.674 29.552C51.802 29.552 52.0793 29.5947 52.506 29.68C53.9993 30.064 55.1087 30.448 55.834 30.832C57.5833 31.6427 58.7993 32.752 59.482 34.16C59.7807 34.7573 59.93 35.5467 59.93 36.528C59.93 37.2107 59.866 37.8507 59.738 38.448C59.482 39.5147 59.354 40.496 59.354 41.392C59.354 42.3733 59.5033 43.0133 59.802 43.312C60.1433 43.6533 60.698 43.7387 61.466 43.568C61.9353 43.44 62.362 43.1627 62.746 42.736C63.642 41.84 64.4953 39.8347 65.306 36.72C65.3913 36.4213 65.7113 36.2507 66.266 36.208C66.394 36.208 66.6073 36.208 66.906 36.208C67.7167 36.208 68.1647 36.2507 68.25 36.336C68.506 36.5067 68.506 37.0187 68.25 37.872C67.61 40.176 66.6927 42.1173 65.498 43.696C64.4313 45.1893 63.1727 46.128 61.722 46.512C61.4233 46.5973 60.9113 46.64 60.186 46.64C59.418 46.64 58.8633 46.5973 58.522 46.512C57.626 46.256 56.9007 45.936 56.346 45.552C54.81 44.528 53.914 42.9707 53.658 40.88C53.5727 40.0267 53.6367 39.1947 53.85 38.384C54.0633 37.2747 54.0633 36.4 53.85 35.76C53.2527 34.096 51.5673 32.9653 48.794 32.368L48.026 32.24L46.49 38.256C45.4233 42.3947 44.8473 44.5493 44.762 44.72C44.3353 45.616 43.61 46.2347 42.586 46.576C41.9033 46.7467 41.2207 46.7253 40.538 46.512C40.026 46.2987 39.6207 45.9147 39.322 45.36C39.1087 45.0187 39.066 44.5707 39.194 44.016C39.322 43.1627 40.794 37.0827 43.61 25.776C46.7673 13.232 48.2607 6.768 48.09 6.384C47.7913 6.08533 46.874 5.91466 45.338 5.872C44.314 5.872 43.738 5.72267 43.61 5.424C43.5247 5.296 43.5887 4.80533 43.802 3.952C44.0153 3.056 44.186 2.56533 44.314 2.48C44.442 2.352 44.57 2.288 44.698 2.288L49.626 1.968ZM78.649 17.84C79.5023 17.6267 80.505 17.648 81.657 17.904C83.833 18.5013 85.2197 19.8027 85.817 21.808C85.9877 22.5333 85.9877 23.4507 85.817 24.56C85.7317 24.8587 85.4117 25.7333 84.857 27.184C83.321 31.3227 82.3183 34.5013 81.849 36.72C81.3797 39.5787 81.6357 41.5627 82.617 42.672C83.3423 43.5253 84.3663 43.8453 85.689 43.632C87.609 43.376 89.2943 42.224 90.745 40.176L91.129 39.6L93.433 30.192C95.0543 23.8347 95.929 20.5493 96.057 20.336C96.7397 19.0987 97.7637 18.4587 99.129 18.416C99.8117 18.416 100.388 18.608 100.857 18.992C101.07 19.0773 101.262 19.312 101.433 19.696C101.646 20.1227 101.689 20.656 101.561 21.296C101.433 21.936 100.409 26.1387 98.489 33.904C96.0997 43.2053 94.9477 47.7067 95.033 47.408C94.6063 48.7733 93.9663 50.032 93.113 51.184C90.7237 54.8107 87.5663 57.2427 83.641 58.48C81.7637 59.12 79.929 59.312 78.137 59.056C74.937 58.5867 72.9317 57.136 72.121 54.704C71.9503 53.7653 71.9717 52.8907 72.185 52.08C72.441 51.0133 72.9743 50.16 73.785 49.52C75.321 48.4107 76.7717 48.1973 78.137 48.88C78.649 49.1787 79.033 49.584 79.289 50.096C79.7583 51.12 79.673 52.2293 79.033 53.424C78.6063 54.2347 78.0303 54.832 77.305 55.216L76.921 55.472L77.241 55.6C78.905 56.3253 80.6543 56.3253 82.489 55.6C84.793 54.6613 86.713 52.592 88.249 49.392C88.5477 48.7093 88.825 48.0267 89.081 47.344C89.593 45.8507 89.8063 45.0827 89.721 45.04C89.6783 45.04 89.529 45.1253 89.273 45.296C88.633 45.68 87.9503 46 87.225 46.256C84.8783 47.0667 82.4677 46.9173 79.993 45.808C79.3957 45.552 78.8623 45.232 78.393 44.848C76.473 43.312 75.641 40.9653 75.897 37.808C76.0677 35.7173 77.0703 32.1973 78.905 27.248C78.9477 27.0773 78.9903 26.928 79.033 26.8C79.6303 25.3067 79.9503 24.4107 79.993 24.112C80.505 22.6613 80.569 21.6587 80.185 21.104C80.0143 20.848 79.673 20.72 79.161 20.72C77.3263 20.8907 75.8117 22.448 74.617 25.392C74.4037 25.904 74.2117 26.4587 74.041 27.056C73.8277 27.7387 73.657 28.1013 73.529 28.144C73.4863 28.1867 73.0383 28.208 72.185 28.208H71.033L70.841 28.016C70.6277 27.8453 70.649 27.3973 70.905 26.672C71.7157 23.9413 72.953 21.7867 74.617 20.208C75.8117 18.9707 77.1557 18.1813 78.649 17.84ZM127.048 0.943996L130.376 1.008C131.571 1.22133 132.701 1.584 133.768 2.096C134.877 2.608 135.837 3.376 136.648 4.4C136.819 4.57066 136.925 4.67733 136.968 4.72L138.824 2.864C140.061 1.62667 140.701 0.986665 140.744 0.943996C140.957 0.773332 141.384 0.773332 142.024 0.943996C142.152 1.072 142.237 1.17866 142.28 1.264C142.323 1.43466 141.725 3.99466 140.488 8.944C139.208 13.9787 138.525 16.5387 138.44 16.624L138.248 16.816H137.096C136.115 16.816 135.581 16.688 135.496 16.432C135.453 16.304 135.475 16.0267 135.56 15.6C135.944 12.6133 135.709 10.16 134.856 8.24C133.832 6.10666 132.04 4.82666 129.48 4.4C128.456 4.22933 127.325 4.22933 126.088 4.4C124.467 4.74133 122.952 5.59467 121.544 6.96C119.112 9.34933 118.131 11.888 118.6 14.576C118.856 16.4107 119.837 17.6693 121.544 18.352L125.96 19.568C127.624 19.9947 129.203 20.4213 130.696 20.848C131.805 21.3173 132.829 22.0213 133.768 22.96C134.451 23.6427 135.005 24.432 135.432 25.328C136.627 27.8453 136.84 30.64 136.072 33.712C135.091 37.8933 132.787 41.392 129.16 44.208C128.861 44.4213 128.563 44.6347 128.264 44.848C126.771 45.744 125.512 46.3627 124.488 46.704C122.909 47.216 121.288 47.4507 119.624 47.408C116.979 47.28 114.76 46.768 112.968 45.872C112.115 45.488 111.24 44.8693 110.344 44.016L109.768 43.44C109.725 43.44 109.107 44.08 107.912 45.36L105.928 47.344L105.288 47.408H105.224C104.883 47.408 104.648 47.344 104.52 47.216C104.392 47.088 104.328 46.9813 104.328 46.896C104.328 46.768 105.565 41.7547 108.04 31.856C108.125 31.6 108.659 31.472 109.64 31.472H110.792L110.984 31.664C111.155 31.8347 111.176 32.2827 111.048 33.008C111.048 33.0933 111.027 33.2 110.984 33.328C110.685 34.9067 110.643 36.2293 110.856 37.296C111.709 41.4347 114.845 43.6107 120.264 43.824C121.373 43.824 122.312 43.696 123.08 43.44C125.469 42.672 127.389 41.008 128.84 38.448C129.437 37.4667 129.843 36.4427 130.056 35.376C130.568 32.816 130.163 30.768 128.84 29.232C128.413 28.8053 127.859 28.4427 127.176 28.144L122.76 26.928C119.517 26.0747 117.533 25.456 116.808 25.072C113.907 23.408 112.392 20.7627 112.264 17.136C112.179 15.6 112.413 14.0213 112.968 12.4C114.291 8.38933 116.872 5.27467 120.712 3.056C121.224 2.75733 121.757 2.48 122.312 2.224C123.763 1.54133 125.107 1.136 126.344 1.008C126.515 0.965331 126.749 0.943996 127.048 0.943996ZM154.01 6C154.65 5.82933 155.247 5.872 155.802 6.128C156.442 6.34133 156.869 6.74666 157.082 7.344C157.253 7.856 157.125 8.92267 156.698 10.544C156.57 11.0987 156.335 12.0587 155.994 13.424C155.226 16.624 154.821 18.2453 154.778 18.288C154.778 18.3733 155.802 18.416 157.85 18.416H160.922L161.114 18.608C161.37 18.7787 161.37 19.3333 161.114 20.272C160.986 20.912 160.858 21.36 160.73 21.616C160.602 21.8293 160.175 21.9573 159.45 22C159.109 22 158.319 22 157.082 22H153.882L153.818 22.256C153.818 22.384 153.071 25.3493 151.578 31.152C150.213 36.6133 149.466 39.728 149.338 40.496C149.167 41.4347 149.189 42.2027 149.402 42.8C149.701 43.5253 150.405 43.8027 151.514 43.632C153.349 43.248 154.991 41.9467 156.442 39.728C157.167 38.6187 157.637 37.7227 157.85 37.04C158.063 36.5707 158.298 36.3147 158.554 36.272C158.725 36.2293 159.087 36.208 159.642 36.208C160.453 36.208 160.922 36.2507 161.05 36.336C161.306 36.592 161.242 37.104 160.858 37.872C159.791 40.176 158.469 42.096 156.89 43.632C155.994 44.528 155.098 45.1893 154.202 45.616C153.519 46 152.773 46.2987 151.962 46.512C151.578 46.5973 150.981 46.64 150.17 46.64C149.359 46.64 148.719 46.576 148.25 46.448C146.714 46.064 145.519 45.3387 144.666 44.272C144.111 43.504 143.77 42.7147 143.642 41.904C143.557 41.5627 143.514 41.072 143.514 40.432L143.578 39.536L145.754 30.832C147.205 25.1147 147.93 22.192 147.93 22.064C147.93 22.0213 146.906 22 144.858 22C142.725 22 141.573 21.8507 141.402 21.552C141.317 21.424 141.359 20.9547 141.53 20.144C141.786 19.2907 141.935 18.8427 141.978 18.8C142.106 18.5867 142.533 18.4587 143.258 18.416C143.599 18.416 144.389 18.416 145.626 18.416H148.89L150.106 13.36C151.002 9.73333 151.599 7.74933 151.898 7.408C151.983 7.32266 152.111 7.19467 152.282 7.024C152.751 6.55467 153.327 6.21333 154.01 6ZM180.399 17.776C180.442 17.7333 180.826 17.712 181.551 17.712C182.319 17.7973 182.852 17.8613 183.151 17.904C184.559 18.3307 185.711 19.056 186.607 20.08L186.927 20.528L187.375 20.08C188.527 19.0133 189.722 18.7147 190.959 19.184C191.599 19.3973 192.026 19.8027 192.239 20.4C192.41 20.912 192.303 21.9787 191.919 23.6C191.663 24.7093 191.066 27.12 190.127 30.832C188.634 36.6773 187.844 39.8987 187.759 40.496C187.588 41.4347 187.61 42.2027 187.823 42.8C188.079 43.4827 188.57 43.7813 189.295 43.696C189.807 43.6533 190.34 43.248 190.895 42.48C191.492 41.584 192.111 39.92 192.751 37.488C192.922 36.7627 193.114 36.3573 193.327 36.272C193.455 36.2293 193.86 36.208 194.543 36.208C195.354 36.208 195.802 36.2507 195.887 36.336C196.143 36.5067 196.143 36.9973 195.887 37.808C194.778 41.776 193.348 44.4 191.599 45.68C190.916 46.192 190.234 46.512 189.551 46.64C188.655 46.768 187.695 46.704 186.671 46.448C184.751 46.0213 183.386 45.0187 182.575 43.44L182.383 42.992L181.999 43.312C178.628 46.2133 175.3 47.2373 172.015 46.384C171.076 46.128 170.202 45.744 169.391 45.232C166.959 43.5253 165.572 40.9867 165.231 37.616C165.06 36.464 165.082 35.2267 165.295 33.904C165.85 30.32 167.322 27.0347 169.711 24.048C170.522 23.0667 171.418 22.1707 172.399 21.36C174.831 19.3547 177.284 18.1813 179.759 17.84C179.93 17.7973 180.143 17.776 180.399 17.776ZM182.255 20.912C181.402 20.6987 180.698 20.656 180.143 20.784C178.82 21.04 177.54 21.7867 176.303 23.024C175.066 24.3467 173.978 26.6933 173.039 30.064C172.826 30.832 172.591 31.728 172.335 32.752C171.61 35.6533 171.247 37.808 171.247 39.216C171.247 40.5387 171.524 41.584 172.079 42.352C172.89 43.4187 174.02 43.8453 175.471 43.632C177.092 43.4613 178.756 42.5227 180.463 40.816C181.231 40.048 181.807 39.344 182.191 38.704C182.191 38.832 182.767 36.592 183.919 31.984L185.519 25.392L185.455 24.944C184.9 22.8107 183.834 21.4667 182.255 20.912ZM211.01 6C211.65 5.82933 212.247 5.872 212.802 6.128C213.442 6.34133 213.869 6.74666 214.082 7.344C214.253 7.856 214.125 8.92267 213.698 10.544C213.57 11.0987 213.335 12.0587 212.994 13.424C212.226 16.624 211.821 18.2453 211.778 18.288C211.778 18.3733 212.802 18.416 214.85 18.416H217.922L218.114 18.608C218.37 18.7787 218.37 19.3333 218.114 20.272C217.986 20.912 217.858 21.36 217.73 21.616C217.602 21.8293 217.175 21.9573 216.45 22C216.109 22 215.319 22 214.082 22H210.882L210.818 22.256C210.818 22.384 210.071 25.3493 208.578 31.152C207.213 36.6133 206.466 39.728 206.338 40.496C206.167 41.4347 206.189 42.2027 206.402 42.8C206.701 43.5253 207.405 43.8027 208.514 43.632C210.349 43.248 211.991 41.9467 213.442 39.728C214.167 38.6187 214.637 37.7227 214.85 37.04C215.063 36.5707 215.298 36.3147 215.554 36.272C215.725 36.2293 216.087 36.208 216.642 36.208C217.453 36.208 217.922 36.2507 218.05 36.336C218.306 36.592 218.242 37.104 217.858 37.872C216.791 40.176 215.469 42.096 213.89 43.632C212.994 44.528 212.098 45.1893 211.202 45.616C210.519 46 209.773 46.2987 208.962 46.512C208.578 46.5973 207.981 46.64 207.17 46.64C206.359 46.64 205.719 46.576 205.25 46.448C203.714 46.064 202.519 45.3387 201.666 44.272C201.111 43.504 200.77 42.7147 200.642 41.904C200.557 41.5627 200.514 41.072 200.514 40.432L200.578 39.536L202.754 30.832C204.205 25.1147 204.93 22.192 204.93 22.064C204.93 22.0213 203.906 22 201.858 22C199.725 22 198.573 21.8507 198.402 21.552C198.317 21.424 198.359 20.9547 198.53 20.144C198.786 19.2907 198.935 18.8427 198.978 18.8C199.106 18.5867 199.533 18.4587 200.258 18.416C200.599 18.416 201.389 18.416 202.626 18.416H205.89L207.106 13.36C208.002 9.73333 208.599 7.74933 208.898 7.408C208.983 7.32266 209.111 7.19467 209.282 7.024C209.751 6.55467 210.327 6.21333 211.01 6ZM238.231 17.776C239.212 17.6907 240.343 17.712 241.623 17.84C243.714 18.2667 245.207 19.056 246.103 20.208C246.53 20.6773 246.85 21.296 247.063 22.064C247.276 22.832 247.276 23.6427 247.063 24.496C246.679 26.1173 245.698 27.12 244.119 27.504C243.607 27.632 243.095 27.632 242.583 27.504C241.858 27.376 241.324 26.992 240.983 26.352C240.855 26.1387 240.77 25.8187 240.727 25.392C240.727 24.7093 240.876 24.0693 241.175 23.472C241.431 22.8747 241.9 22.3627 242.583 21.936L242.967 21.68L242.647 21.488C241.282 20.72 239.703 20.5067 237.911 20.848C237.655 20.8907 237.42 20.9547 237.207 21.04C236.183 21.3387 235.394 21.936 234.839 22.832C233.687 24.5387 233.644 25.904 234.711 26.928C234.796 27.0133 234.903 27.0987 235.031 27.184C235.458 27.4827 236.418 27.8027 237.911 28.144C239.276 28.4 240.108 28.592 240.407 28.72C242.796 29.4453 244.396 30.832 245.207 32.88C245.548 33.6053 245.719 34.5013 245.719 35.568C245.719 36.3787 245.698 36.912 245.655 37.168C245.271 38.9173 244.588 40.4533 243.607 41.776C241.175 45.1893 237.399 46.832 232.279 46.704C228.524 46.576 225.943 45.424 224.535 43.248C224.407 43.0773 224.3 42.8853 224.215 42.672C223.916 42.0747 223.767 41.3493 223.767 40.496C223.724 39.6427 223.895 38.8107 224.279 38C224.62 37.4453 224.898 37.04 225.111 36.784C226.476 35.4613 227.948 35.0987 229.527 35.696C229.612 35.7387 229.698 35.7813 229.783 35.824C230.636 36.208 231.127 36.8693 231.255 37.808C231.468 39.216 230.978 40.4533 229.783 41.52C229.527 41.776 229.228 41.9893 228.887 42.16C228.588 42.3307 228.418 42.4373 228.375 42.48C228.503 42.6933 229.058 42.9493 230.039 43.248C230.892 43.504 231.959 43.632 233.239 43.632C234.519 43.632 235.543 43.504 236.311 43.248C237.719 42.8213 238.786 42.0107 239.511 40.816C240.492 39.408 240.706 38.1707 240.151 37.104C239.724 36.208 238.999 35.5893 237.975 35.248C237.676 35.12 236.887 34.928 235.607 34.672C234.114 34.3733 232.962 34.0533 232.151 33.712C230.444 32.7733 229.335 31.3867 228.823 29.552C228.738 29.2107 228.695 28.6773 228.695 27.952C228.652 27.184 228.802 26.224 229.143 25.072C229.612 23.664 230.316 22.384 231.255 21.232C232.876 19.312 235.202 18.16 238.231 17.776Z" fill="#90E0EF"/>
</svg>
